<svg xmlns="http://www.w3.org/2000/svg" width="566.929" height="566.929"><defs><clipPath id="a" clipPathUnits="userSpaceOnUse"><path d="M-77.389 286.468h425.197V-138.73H-77.389Z"/></clipPath><clipPath id="b" clipPathUnits="userSpaceOnUse"><path d="M-111.852 282.612h425.197v-425.197h-425.197Z"/></clipPath><clipPath id="c" clipPathUnits="userSpaceOnUse"><path d="M-135.122 274.877h425.197V-150.32h-425.197Z"/></clipPath><clipPath id="d" clipPathUnits="userSpaceOnUse"><path d="M0 425.197h425.197V0H0Z"/></clipPath><clipPath id="e" clipPathUnits="userSpaceOnUse"><path d="M-194.101 286.468h425.197V-138.73h-425.197Z"/></clipPath><clipPath id="f" clipPathUnits="userSpaceOnUse"><path d="M-244.013 274.877h425.197V-150.32h-425.197Z"/></clipPath><clipPath id="g" clipPathUnits="userSpaceOnUse"><path d="M-279.028 274.877H146.17V-150.32h-425.197Z"/></clipPath><clipPath id="h" clipPathUnits="userSpaceOnUse"><path d="M-311.464 283.755h425.197v-425.197h-425.197Z"/></clipPath><clipPath id="i" clipPathUnits="userSpaceOnUse"><path d="M-349.128 282.612H76.069v-425.197h-425.197Z"/></clipPath><clipPath id="j" clipPathUnits="userSpaceOnUse"><path d="M-353.677 207.846H71.52v-425.197h-425.197Z"/></clipPath><clipPath id="k" clipPathUnits="userSpaceOnUse"><path d="M-130.215 139.086h425.197v-425.197h-425.197Z"/></clipPath></defs><path d="M0 0q1.006 0 1.654.187a3.6 3.6 0 0 1 1.893 1.339q.588.794.847 2.035.15.741.15 1.374 0 2.435-1.082 3.783-1.08 1.347-3.482 1.347h-3.517V0Zm-5.585 11.591H.398q3.047 0 4.727-1.918 1.497-1.731 1.498-4.435 0-2.088-.885-3.774-1.559-2.98-5.36-2.981h-5.963z" clip-path="url(#a)" style="fill:#5a3c88;fill-opacity:1;fill-rule:nonzero;stroke:none" transform="matrix(1.33333 0 0 -1.33333 103.185 381.957)"/><path d="m0 0-2.272 5.791L-4.687 0Zm-3.333 7.735h2.293L4.392-5.372H2.17L.652-1.446h-5.921l-1.62-3.926h-2.079z" clip-path="url(#b)" style="fill:#5a3c88;fill-opacity:1;fill-rule:nonzero;stroke:none" transform="matrix(1.33333 0 0 -1.33333 149.137 376.816)"/><path d="m0 0 4.3-11.162L8.55 0h2.272L5.36-13.107H3.21L-2.242 0Z" clip-path="url(#c)" style="fill:#5a3c88;fill-opacity:1;fill-rule:nonzero;stroke:none" transform="matrix(1.33333 0 0 -1.33333 180.163 366.502)"/><path d="M165.699 150.32h2.048v-13.107h-2.048z" clip-path="url(#d)" style="fill:#5a3c88;fill-opacity:1;fill-rule:nonzero;stroke:none" transform="matrix(1.33333 0 0 -1.33333 0 566.93)"/><path d="M0 0q1.006 0 1.654.187a3.6 3.6 0 0 1 1.893 1.339q.588.794.847 2.035.15.741.15 1.374 0 2.435-1.082 3.783-1.08 1.347-3.482 1.347h-3.517V0Zm-5.585 11.591H.398q3.047 0 4.727-1.918 1.497-1.731 1.498-4.435 0-2.088-.885-3.774-1.559-2.98-5.36-2.981h-5.963z" clip-path="url(#e)" style="fill:#5a3c88;fill-opacity:1;fill-rule:nonzero;stroke:none" transform="matrix(1.33333 0 0 -1.33333 258.801 381.957)"/><path d="M0 0h2.905L7.21-11.082 11.484 0h2.885v-13.107h-1.935v7.736q-.001.401.019 1.329t.02 1.99L8.199-13.107h-2.01L1.875-2.052v-.401q0-.482.031-1.468.03-.986.031-1.45v-7.736H0Z" clip-path="url(#f)" style="fill:#5a3c88;fill-opacity:1;fill-rule:nonzero;stroke:none" transform="matrix(1.33333 0 0 -1.33333 325.35 366.502)"/><path d="M0 0h10.863v-1.605H1.978v-3.98h8.212v-1.518H1.978v-4.443h9.039v-1.561H0Z" clip-path="url(#g)" style="fill:#5a3c88;fill-opacity:1;fill-rule:nonzero;stroke:none" transform="matrix(1.33333 0 0 -1.33333 372.037 366.502)"/><path d="M0 0q.069-1.116.579-1.812.972-1.302 3.427-1.302a6.6 6.6 0 0 1 2.002.286q1.748.552 1.748 1.98 0 1.071-.741 1.526-.75.447-2.35.776l-1.964.402q-1.924.392-2.724.866-1.383.82-1.383 2.454 0 1.766 1.359 2.899t3.848 1.133q2.29 0 3.891-.994 1.603-.995 1.602-3.182H7.389q-.147 1.053-.625 1.615-.89 1.027-3.02 1.027-1.72 0-2.472-.66-.751-.661-.751-1.535 0-.965.888-1.41.582-.286 2.636-.714l2.034-.419q1.471-.304 2.271-.831 1.382-.918 1.382-2.667 0-2.178-1.763-3.114-1.765-.937-4.1-.937-2.723 0-4.264 1.249Q-1.936-2.124-1.905 0z" clip-path="url(#h)" style="fill:#5a3c88;fill-opacity:1;fill-rule:nonzero;stroke:none" transform="matrix(1.33333 0 0 -1.33333 415.286 378.34)"/><path d="m0 0-2.272 5.791L-4.687 0Zm-3.332 7.735h2.293L4.393-5.372H2.171L.652-1.446h-5.921l-1.62-3.926h-2.079z" clip-path="url(#i)" style="fill:#5a3c88;fill-opacity:1;fill-rule:nonzero;stroke:none" transform="matrix(1.33333 0 0 -1.33333 465.504 376.816)"/><path d="M0 0v71.017l-70.851-45.48-.046 18.892-71.124-26.802v-.042l-140.217-52.839v-20.253h58.776c49.261 0 76.39 16.714 81.414 50.118V-55.29H.081V0z" clip-path="url(#j)" style="fill:#5a3c88;fill-opacity:1;fill-rule:nonzero;stroke:none" transform="matrix(1.33333 0 0 -1.33333 471.57 277.128)"/><path d="M0 0h-58.776v-89.661L78.367-37.979Q64.33-.001 0 0" clip-path="url(#k)" style="fill:#5a3c88;fill-opacity:1;fill-rule:nonzero;stroke:none" transform="matrix(1.33333 0 0 -1.33333 173.62 185.448)"/></svg>